<svg xmlns="http://www.w3.org/2000/svg" xmlns:xlink="http://www.w3.org/1999/xlink" width="500" height="500" viewBox="0 0 500 500"><path id="path-0" fill="#1E1EBA" fill-rule="evenodd" d="M434.489,238.524c-3.279,3.843-9.315,9.857-14.226,15.463	c-1.37,1.564-3.705,5.496-4.33,5.566c-1.299,0.146-7.59-6.709-10.515-9.277c-51-44.79-106.37-93.644-155.246-137.929	c-49.982,43.283-104.547,92.5-156.484,137.929c-2.755,2.409-8.857,9.298-9.896,9.277c-1.974-0.039-8.744-9.185-9.896-10.515	c-3.928-4.534-6.757-8.363-9.277-10.515c44.234-41.181,90.382-81.342,136.073-121.847c15.264-13.532,31.628-26.021,45.77-40.203	c1.04-1.043,0.795-2.177,2.474-1.855c6.912,1.324,17.707,14.128,24.122,19.792C326.145,141.284,383.681,191.403,434.489,238.524z" clip-rule="evenodd" style="position:relative"/><path id="path-1" fill="#1E1EBA" fill-rule="evenodd" d="M166.055,97.503c0.441,9.719-0.657,17.898-0.619,27.215	c-14.389,14.269-31.238,29.376-45.77,41.44c0-22.885,0-45.77,0-68.655C135.129,97.503,150.592,97.503,166.055,97.503z" clip-rule="evenodd" style="position:relative"/><path id="path-2" fill="#1E1EBA" fill-rule="evenodd" d="M373.875,425.315c-27.627,0-55.254,0-82.881,0	c0-14.453,0-25.798,0-39.585c0-9.408,3.422-31.099-1.855-37.729c-4.563-5.732-28.553-3.092-38.966-3.092	c-11.012,0-33.423-3.599-39.585,2.474c-5.226,5.149-2.474,27.185-2.474,37.729c0,14.841,0,27.065,0,40.203	c-27.627,0-55.254,0-82.881,0c-4.205-2.71-4.788-3.089-5.567-7.422c-2.077-11.551,0-26.889,0-40.822c0-27.21,0-55.758,0-82.262	c0-10.351-2.554-32.854,0-41.44c1.109-3.729,11.237-11.133,15.463-14.845c38.792-34.067,77.422-69.149,115.044-100.817	c36.457,32.682,75.502,66.86,113.806,100.817c4.862,4.311,14.303,10.92,15.463,15.463c1.374,5.377,0,14.238,0,21.648	c0,38.301,0,71.555,0,110.095C379.441,399.313,382.385,423.481,373.875,425.315z" clip-rule="evenodd" style="position:relative"/></svg>