<svg xmlns="http://www.w3.org/2000/svg" id="b553d18a-ef41-49ec-add9-245f590c86f0" width="746.669" height="798.377" data-name="Layer 1" viewBox="0 0 746.669 798.377"><title>different love</title><circle cx="399.345" cy="347" r="347" fill="#f2f2f2"/><g id="f9f9bcf5-f65d-4586-b32b-ca2676d797c4" data-name="ground"><path fill="#3f3d56" d="M973.02518,707.67834c0,7.12408-161.70573,45.73381-361.17986,45.73381s-361.17985-38.60973-361.17985-45.73381S412.3712,712.369,611.84532,712.369,973.02518,700.55426,973.02518,707.67834Z" transform="translate(-226.66547 -50.81143)"/><path d="M973.02518,707.67834c0,7.12408-161.70573,45.73381-361.17986,45.73381s-361.17985-38.60973-361.17985-45.73381S412.3712,712.369,611.84532,712.369,973.02518,700.55426,973.02518,707.67834Z" opacity=".1" transform="translate(-226.66547 -50.81143)"/><ellipse cx="385.18" cy="656.867" fill="#3f3d56" rx="361.18" ry="12.899"/></g><line x1="730.252" x2="730.252" y1="653.349" y2="537.255" fill="#3f3d56" stroke="#3f3d56" stroke-miterlimit="10" stroke-width="2"/><circle cx="730.252" cy="537.255" r="16.417" fill="#3f3d56"/><path fill="#3f3d56" d="M956.91727,659.61767s-2.34533-50.44293-50.42446-44.57962" transform="translate(-226.66547 -50.81143)"/><line x1="66.842" x2="66.842" y1="662.004" y2="280" fill="#3f3d56" stroke="#3f3d56" stroke-miterlimit="10" stroke-width="2"/><circle cx="66.842" cy="279.817" r="16.417" fill="#3f3d56"/><circle cx="16.417" cy="559.982" r="16.417" fill="#3f3d56"/><path fill="#3f3d56" d="M293.50719,414.48817s-2.34532-50.44292-50.42446-44.57961" transform="translate(-226.66547 -50.81143)"/><path fill="#3f3d56" d="M293.50719,557.48817s-2.34532-50.44292-50.42446-44.57961" transform="translate(-226.66547 -50.81143)"/><path fill="none" stroke="#3f3d56" stroke-miterlimit="10" stroke-width="2" d="M293.50719,708.30226s10.554-92.81816-50.42446-97.50881" transform="translate(-226.66547 -50.81143)"/><circle cx="117.273" cy="559.982" r="16.417" fill="#3f3d56"/><path fill="none" stroke="#3f3d56" stroke-miterlimit="10" stroke-width="2" d="M293.51439,708.30226s-10.554-92.81816,50.42446-97.50881" transform="translate(-226.66547 -50.81143)"/><circle cx="118.273" cy="405.982" r="16.417" fill="#3f3d56"/><path fill="none" stroke="#3f3d56" stroke-miterlimit="10" stroke-width="2" d="M294.51439,554.30226s-10.554-92.81816,50.42446-97.50881" transform="translate(-226.66547 -50.81143)"/><line x1="603.978" x2="603.978" y1="651.004" y2="418.817" fill="#3f3d56" stroke="#3f3d56" stroke-miterlimit="10" stroke-width="2"/><circle cx="603.978" cy="418.817" r="16.417" fill="#3f3d56"/><path fill="#3f3d56" d="M830.64388,536.48817s2.34533-50.44292,50.42447-44.57961" transform="translate(-226.66547 -50.81143)"/><path fill="none" stroke="#3f3d56" stroke-miterlimit="10" stroke-width="2" d="M830.64388,697.30226s-10.55395-92.81816,50.42447-97.50881" transform="translate(-226.66547 -50.81143)"/><circle cx="654.403" cy="548.982" r="16.417" fill="#3f3d56"/><circle cx="584.345" cy="178" r="64" fill="#ff6584"/><circle cx="478.742" cy="543.936" r="79" fill="#2f2e41"/><rect width="24" height="43" x="717.407" y="656.748" fill="#2f2e41" transform="translate(1232.14928 1305.68423) rotate(-180)"/><rect width="24" height="43" x="669.407" y="656.748" fill="#2f2e41" transform="translate(1136.14928 1305.68423) rotate(-180)"/><ellipse cx="676.407" cy="704.248" fill="#2f2e41" rx="20" ry="7.5" transform="translate(-488.16798 381.74357) rotate(-30)"/><ellipse cx="723.407" cy="704.248" fill="#2f2e41" rx="20" ry="7.5" transform="translate(-481.87117 405.24357) rotate(-30)"/><circle cx="476.742" cy="523.936" r="27" fill="#fff"/><circle cx="467.546" cy="512.436" r="9" fill="#3f3d56"/><path fill="#4ea685" d="M782.04,521.28011c6.37889-28.56758-14.01185-57.43392-45.544-64.47477s-62.2651,10.41-68.644,38.9776,14.51861,39.10379,46.05075,46.14464S775.66116,549.84769,782.04,521.28011Z" transform="translate(-226.66547 -50.81143)"/><ellipse cx="636.192" cy="567.591" fill="#2f2e41" rx="12.4" ry="39.5" transform="translate(-362.60752 878.31743) rotate(-66.82884)"/><ellipse cx="784.192" cy="620.591" fill="#2f2e41" rx="12.4" ry="39.5" transform="translate(-321.56712 1046.52439) rotate(-66.82884)"/><path fill="#fff" d="M721.21193,629.24783a18,18,0,0,1-36,0c0-9.94113,8.05887-12,18-12S721.21193,619.3067,721.21193,629.24783Z" transform="translate(-226.66547 -50.81143)"/><line x1="384.583" x2="384.583" y1="520.349" y2="404.255" fill="none" stroke="#4ea685" stroke-miterlimit="10" stroke-width="2"/><circle cx="384.583" cy="404.255" r="16.417" fill="#4ea685"/><path fill="#4ea685" d="M611.2482,526.61767s-2.34532-50.44293-50.42446-44.57962" transform="translate(-226.66547 -50.81143)"/><path fill="#2f2e41" d="M456.89809,491.67283l6.36377,15h5.63623l-8-38c0-24.39074-11.77246-45-36.16333-45h-.00025a30.83661,30.83661,0,0,0-30.83642,30.83655V491.7772a14.89557,14.89557,0,0,0,14.89551,14.89563h43.72949Z" transform="translate(-226.66547 -50.81143)"/><path fill="#2f2e41" d="M483.51079,642.5219s83-10,93,8,3,33-10,42-85,50-85,50l-6,10-13-2-13-12,6-11s50-30,51-38c0,0-46,21-51,17s-61-23-52-34,32-27,32-27Z" transform="translate(-226.66547 -50.81143)"/><path d="M483.51079,642.5219s83-10,93,8,3,33-10,42-85,50-85,50l-6,10-13-2-13-12,6-11s50-30,51-38c0,0-46,21-51,17s-61-23-52-34,32-27,32-27Z" opacity=".1" transform="translate(-226.66547 -50.81143)"/><path fill="#2f2e41" d="M472.51079,743.5219s15-3,12,7-5,30,0,35,21,27,5,29-33-18-33-18-11-32-19-35-16-15-12-18,28-22,30-21,1,12,1,12S464.51079,747.5219,472.51079,743.5219Z" transform="translate(-226.66547 -50.81143)"/><path fill="#ffb9b9" d="M474.01079,530.0219l37,26s28-29,28-46,15-49,22-36-8,44-8,44l-28,66s-16,3-25-4-34-21-34-21Z" transform="translate(-226.66547 -50.81143)"/><circle cx="210.845" cy="407.71" r="28" fill="#ffb9b9"/><path fill="#ffb9b9" d="M452.01079,478.0219s-10,26-6,32,9,6,13,8c2,1,23,9,23,15a23.864,23.864,0,0,1-3,11l-3,17-25,16-33-4-25-14s-4-37,7-43,24-20,23-25-2-17-2-17Z" transform="translate(-226.66547 -50.81143)"/><path fill="#4ea685" d="M494.01079,540.0219s-15,15-15,17,10,11,3,23-7,42-7,42l-24,5-45-4-7-69s18,3,22,6,15-4,23-4,31-4,31-4l-2-8,8-14Z" transform="translate(-226.66547 -50.81143)"/><path fill="none" stroke="#ffb9b9" stroke-miterlimit="10" d="M497.51079,646.5219" transform="translate(-226.66547 -50.81143)"/><path fill="#2f2e41" d="M437.51079,646.5219s101-45,109-16,9,99,9,99,5,48,11,53,0,20,0,20l-15,5-14-6-6-16s-2-36-10-54-8-60-7-62c0,0-39,48-77,45s-43.5-11.5-43.5-11.5S412.51079,646.5219,437.51079,646.5219Z" transform="translate(-226.66547 -50.81143)"/><path fill="#2f2e41" d="M560.51079,787.5219s4-14,13-3,50,28,51,30,19,13-2,28-49,0-49,0-24-8-30-7-18-5-19-10,1.36221-48.95582,6.6811-44.47791,11.3189,16.47791,11.3189,16.47791S562.51079,802.5219,560.51079,787.5219Z" transform="translate(-226.66547 -50.81143)"/><path fill="#2f2e41" d="M471.51079,619.5219s5.5-.5,4.5,12.5c0,0-34.5,10.5-40.5,19.5s-32,36-36,55c0,0-29-7-13-57l18.81169-40.78566S416.51079,631.5219,471.51079,619.5219Z" transform="translate(-226.66547 -50.81143)"/><path fill="#ffb9b9" d="M447.97322,643.826,414.01079,629.0219s-16-33-16-49a246.60333,246.60333,0,0,0-2.12511-27.522A35.52824,35.52824,0,0,1,407.452,521.35637c3.5315-3.08838,7.49634-5.33447,11.55884-5.33447,0,0,12,22,10,42s3,50,3,50l45.18631,24.18422" transform="translate(-226.66547 -50.81143)"/><path d="M447.97322,643.826,414.01079,629.0219s-16-33-16-49c0-8.33384,35-33,33-13s1,41,1,41l45.18631,24.18422" opacity=".1" transform="translate(-226.66547 -50.81143)"/><path fill="#4ea685" d="M432.01079,565.0219l-3.18816,13.5-17.81184,8.5h-15l-7-32s12.35922-2.614,18.67961.693,21.1626,4.09835,21.1626,4.09835Z" transform="translate(-226.66547 -50.81143)"/><path fill="#2f2e41" d="M448.601,425.01005c-5.42529-1.37518-18.28906-1.33722-20.17139-1.33722a34.53143,34.53143,0,0,0-34.53149,34.53144l-13,48.46856h25.3042l4.6958-18,6.66675,18h12.73828l1.095-10.81653,4.31128,10.81653h14.18872c-10.62647-24.04406-16.2793-45.96063-2.31812-59.48785,9.42749,1.28412,17.37866-1.241,18.67432-6.35223C467.747,434.94383,459.8434,427.85978,448.601,425.01005Z" transform="translate(-226.66547 -50.81143)"/></svg>